<svg xmlns="http://www.w3.org/2000/svg" width="103.424" height="24.68" viewBox="0 0 103.424 24.68">
  <g id="Group_2" data-name="Group 2" transform="translate(-635.422 -1138.678)">
    <path id="Path_1" data-name="Path 1" d="M647.027,1168.823v3.043H635.422v-16.125h11.605v3.043h-8.289v3.384h7.949v3.043h-7.949v3.611Z" transform="translate(0 -13.232)" fill="#0067fc"/>
    <path id="Path_2" data-name="Path 2" d="M701.962,1184.242v6h-3.225v-16.624h2.975v1.453a4.243,4.243,0,0,1,3.77-1.726,4.931,4.931,0,0,1,4,1.771,7.449,7.449,0,0,1,0,8.9,4.931,4.931,0,0,1-4,1.771,4.784,4.784,0,0,1-2.1-.443A3.809,3.809,0,0,1,701.962,1184.242Zm.715-7.109a4.066,4.066,0,0,0,0,4.86,2.84,2.84,0,0,0,4.247,0,4.065,4.065,0,0,0,0-4.86,2.84,2.84,0,0,0-4.247,0Z" transform="translate(-49.098 -26.88)" fill="#0067fc"/>
    <path id="Path_3" data-name="Path 3" d="M762.964,1186.456v-11.9h3.225v11.9Z" transform="translate(-98.904 -27.821)" fill="#0067fc"/>
    <path id="Path_4" data-name="Path 4" d="M788.828,1184a6.671,6.671,0,0,1,0-8.88,5.65,5.65,0,0,1,4.281-1.783,5.492,5.492,0,0,1,4.008,1.431,5.266,5.266,0,0,1,1.669,3.2h-3.316a2.19,2.19,0,0,0-.84-1.272,2.485,2.485,0,0,0-1.544-.5,2.408,2.408,0,0,0-2,.92,4.465,4.465,0,0,0,0,4.883,2.407,2.407,0,0,0,2,.92,2.483,2.483,0,0,0,1.544-.5,2.189,2.189,0,0,0,.84-1.272h3.316a5.266,5.266,0,0,1-1.669,3.2,5.492,5.492,0,0,1-4.008,1.431A5.649,5.649,0,0,1,788.828,1184Z" transform="translate(-117.648 -26.88)" fill="#0067fc"/>
    <g id="Group_1" data-name="Group 1" transform="translate(714.273 1141.306)">
      <path id="Path_5" data-name="Path 5" d="M1022.555,1173.614h2.975v11.9h-2.975v-1.453a4.242,4.242,0,0,1-3.77,1.726,4.931,4.931,0,0,1-4-1.771,7.449,7.449,0,0,1,0-8.9,4.931,4.931,0,0,1,4-1.771,4.243,4.243,0,0,1,3.77,1.726Zm-.965,8.38a4.066,4.066,0,0,0,0-4.86,2.84,2.84,0,0,0-4.247,0,4.065,4.065,0,0,0,0,4.86,2.84,2.84,0,0,0,4.247,0Z" transform="translate(-1013.312 -1168.186)" fill="#0067fc"/>
      <path id="Path_6" data-name="Path 6" d="M1082.721,1153.719a2.091,2.091,0,0,1-2.816,0,1.877,1.877,0,0,1-.545-1.385,1.916,1.916,0,0,1,.545-1.4,2.06,2.06,0,0,1,2.816,0,1.916,1.916,0,0,1,.545,1.4A1.877,1.877,0,0,1,1082.721,1153.719Zm-3.02,13.99v-11.9h3.225v11.9Z" transform="translate(-1064.53 -1150.381)" fill="#0067fc"/>
      <path id="Path_7" data-name="Path 7" d="M1111.612,1168.729h-3.225V1151.7h3.225Z" transform="translate(-1087.039 -1151.401)" fill="#0067fc"/>
    </g>
    <path id="Path_8" data-name="Path 8" d="M904.9,1138.678h-20.91a3.2,3.2,0,0,0-3.254,3.125v14.575a3.17,3.17,0,0,0,2.759,3.085V1143.73l9.457,7.984a1.077,1.077,0,0,0,.694.254h1.6a1.078,1.078,0,0,0,.694-.254l9.458-7.984v15.733a3.17,3.17,0,0,0,2.759-3.085V1141.8A3.2,3.2,0,0,0,904.9,1138.678Zm-10.455,10.551-9.2-7.792h18.4Z" transform="translate(-196.228)" fill="#0067fc"/>
    <rect id="Rectangle_3" data-name="Rectangle 3" width="3.214" height="3.214" transform="translate(664.06 1142.349)" fill="#ef4035"/>
  </g>
</svg>
